<mxfile host="app.diagrams.net" modified="2022-10-25T18:08:15.782Z" agent="5.0 (X11; Linux x86_64) AppleWebKit/537.36 (KHTML, like Gecko) Chrome/106.0.0.0 Safari/537.36" etag="RnjDJpGrlmrmdeN0j2pr" version="20.5.1" type="github">
  <diagram id="C5RBs43oDa-KdzZeNtuy" name="Page-1">
    <mxGraphModel dx="1886" dy="939" grid="1" gridSize="10" guides="1" tooltips="1" connect="1" arrows="1" fold="1" page="1" pageScale="1" pageWidth="827" pageHeight="1169" math="0" shadow="0">
      <root>
        <mxCell id="WIyWlLk6GJQsqaUBKTNV-0" />
        <mxCell id="WIyWlLk6GJQsqaUBKTNV-1" parent="WIyWlLk6GJQsqaUBKTNV-0" />
        <mxCell id="Y_ejUnifsEcxqDauokeJ-6" value="" style="edgeStyle=none;curved=1;rounded=0;orthogonalLoop=1;jettySize=auto;html=1;fontSize=12;endArrow=open;startSize=14;endSize=14;sourcePerimeterSpacing=8;targetPerimeterSpacing=8;" parent="WIyWlLk6GJQsqaUBKTNV-1" source="WIyWlLk6GJQsqaUBKTNV-3" target="Y_ejUnifsEcxqDauokeJ-5" edge="1">
          <mxGeometry relative="1" as="geometry" />
        </mxCell>
        <mxCell id="WIyWlLk6GJQsqaUBKTNV-3" value="開始" style="rounded=1;whiteSpace=wrap;html=1;fontSize=12;glass=0;strokeWidth=1;shadow=0;" parent="WIyWlLk6GJQsqaUBKTNV-1" vertex="1">
          <mxGeometry x="160" y="80" width="120" height="40" as="geometry" />
        </mxCell>
        <mxCell id="Y_ejUnifsEcxqDauokeJ-71" value="" style="edgeStyle=none;curved=1;rounded=0;orthogonalLoop=1;jettySize=auto;html=1;fontSize=12;endArrow=open;startSize=14;endSize=14;sourcePerimeterSpacing=8;targetPerimeterSpacing=8;" parent="WIyWlLk6GJQsqaUBKTNV-1" source="Y_ejUnifsEcxqDauokeJ-5" target="Y_ejUnifsEcxqDauokeJ-70" edge="1">
          <mxGeometry relative="1" as="geometry" />
        </mxCell>
        <mxCell id="Y_ejUnifsEcxqDauokeJ-5" value="stack_a&lt;br&gt;stack_b&lt;br&gt;宣言" style="rounded=1;whiteSpace=wrap;html=1;glass=0;strokeWidth=1;shadow=0;fontSize=16;" parent="WIyWlLk6GJQsqaUBKTNV-1" vertex="1">
          <mxGeometry x="160" y="230" width="120" height="60" as="geometry" />
        </mxCell>
        <mxCell id="Y_ejUnifsEcxqDauokeJ-12" value="Yes" style="edgeStyle=none;curved=1;rounded=0;orthogonalLoop=1;jettySize=auto;html=1;fontSize=12;endArrow=open;startSize=14;endSize=14;sourcePerimeterSpacing=8;targetPerimeterSpacing=8;" parent="WIyWlLk6GJQsqaUBKTNV-1" source="Y_ejUnifsEcxqDauokeJ-9" target="Y_ejUnifsEcxqDauokeJ-11" edge="1">
          <mxGeometry relative="1" as="geometry" />
        </mxCell>
        <mxCell id="Y_ejUnifsEcxqDauokeJ-18" value="No" style="edgeStyle=none;curved=1;rounded=0;orthogonalLoop=1;jettySize=auto;html=1;fontSize=12;endArrow=open;startSize=14;endSize=14;sourcePerimeterSpacing=8;targetPerimeterSpacing=8;" parent="WIyWlLk6GJQsqaUBKTNV-1" source="Y_ejUnifsEcxqDauokeJ-9" target="Y_ejUnifsEcxqDauokeJ-17" edge="1">
          <mxGeometry relative="1" as="geometry" />
        </mxCell>
        <mxCell id="Y_ejUnifsEcxqDauokeJ-9" value="argc &amp;lt; 2" style="rhombus;whiteSpace=wrap;html=1;fontSize=16;rounded=1;glass=0;strokeWidth=1;shadow=0;" parent="WIyWlLk6GJQsqaUBKTNV-1" vertex="1">
          <mxGeometry x="180" y="585" width="80" height="80" as="geometry" />
        </mxCell>
        <mxCell id="Y_ejUnifsEcxqDauokeJ-26" style="edgeStyle=none;curved=1;rounded=0;orthogonalLoop=1;jettySize=auto;html=1;exitX=0.5;exitY=1;exitDx=0;exitDy=0;entryX=0.5;entryY=0;entryDx=0;entryDy=0;fontSize=12;endArrow=open;startSize=14;endSize=14;sourcePerimeterSpacing=8;targetPerimeterSpacing=8;" parent="WIyWlLk6GJQsqaUBKTNV-1" source="Y_ejUnifsEcxqDauokeJ-11" target="Y_ejUnifsEcxqDauokeJ-25" edge="1">
          <mxGeometry relative="1" as="geometry" />
        </mxCell>
        <mxCell id="Y_ejUnifsEcxqDauokeJ-11" value="&lt;span style=&quot;font-size: 12px;&quot;&gt;exit(1)&lt;/span&gt;" style="whiteSpace=wrap;html=1;fontSize=16;rounded=1;glass=0;strokeWidth=1;shadow=0;" parent="WIyWlLk6GJQsqaUBKTNV-1" vertex="1">
          <mxGeometry x="360" y="595" width="120" height="60" as="geometry" />
        </mxCell>
        <mxCell id="Y_ejUnifsEcxqDauokeJ-75" value="Yes&lt;br&gt;" style="edgeStyle=none;curved=1;rounded=0;orthogonalLoop=1;jettySize=auto;html=1;fontSize=12;endArrow=open;startSize=14;endSize=14;sourcePerimeterSpacing=8;targetPerimeterSpacing=8;" parent="WIyWlLk6GJQsqaUBKTNV-1" source="Y_ejUnifsEcxqDauokeJ-17" target="Y_ejUnifsEcxqDauokeJ-74" edge="1">
          <mxGeometry relative="1" as="geometry" />
        </mxCell>
        <mxCell id="Y_ejUnifsEcxqDauokeJ-77" value="No" style="edgeStyle=none;curved=1;rounded=0;orthogonalLoop=1;jettySize=auto;html=1;fontSize=12;endArrow=open;startSize=14;endSize=14;sourcePerimeterSpacing=8;targetPerimeterSpacing=8;" parent="WIyWlLk6GJQsqaUBKTNV-1" source="Y_ejUnifsEcxqDauokeJ-17" target="Y_ejUnifsEcxqDauokeJ-76" edge="1">
          <mxGeometry relative="1" as="geometry" />
        </mxCell>
        <mxCell id="Y_ejUnifsEcxqDauokeJ-17" value="argc == 2" style="rhombus;whiteSpace=wrap;html=1;fontSize=16;rounded=1;glass=0;strokeWidth=1;shadow=0;" parent="WIyWlLk6GJQsqaUBKTNV-1" vertex="1">
          <mxGeometry x="180" y="785" width="80" height="80" as="geometry" />
        </mxCell>
        <mxCell id="Y_ejUnifsEcxqDauokeJ-22" value="" style="edgeStyle=none;curved=1;rounded=0;orthogonalLoop=1;jettySize=auto;html=1;fontSize=12;endArrow=open;startSize=14;endSize=14;sourcePerimeterSpacing=8;targetPerimeterSpacing=8;" parent="WIyWlLk6GJQsqaUBKTNV-1" edge="1">
          <mxGeometry relative="1" as="geometry">
            <mxPoint x="488" y="620" as="sourcePoint" />
          </mxGeometry>
        </mxCell>
        <mxCell id="Y_ejUnifsEcxqDauokeJ-24" value="" style="edgeStyle=none;curved=1;rounded=0;orthogonalLoop=1;jettySize=auto;html=1;fontSize=12;endArrow=open;startSize=14;endSize=14;sourcePerimeterSpacing=8;targetPerimeterSpacing=8;" parent="WIyWlLk6GJQsqaUBKTNV-1" edge="1">
          <mxGeometry relative="1" as="geometry">
            <mxPoint x="728" y="620" as="sourcePoint" />
          </mxGeometry>
        </mxCell>
        <mxCell id="Y_ejUnifsEcxqDauokeJ-25" value="終了" style="rounded=1;whiteSpace=wrap;html=1;fontSize=12;glass=0;strokeWidth=1;shadow=0;" parent="WIyWlLk6GJQsqaUBKTNV-1" vertex="1">
          <mxGeometry x="360" y="695" width="120" height="40" as="geometry" />
        </mxCell>
        <mxCell id="Y_ejUnifsEcxqDauokeJ-73" value="" style="edgeStyle=none;curved=1;rounded=0;orthogonalLoop=1;jettySize=auto;html=1;fontSize=12;endArrow=open;startSize=14;endSize=14;sourcePerimeterSpacing=8;targetPerimeterSpacing=8;" parent="WIyWlLk6GJQsqaUBKTNV-1" source="Y_ejUnifsEcxqDauokeJ-70" edge="1">
          <mxGeometry relative="1" as="geometry">
            <mxPoint x="220" y="572" as="targetPoint" />
          </mxGeometry>
        </mxCell>
        <mxCell id="Y_ejUnifsEcxqDauokeJ-70" value="stack_a = NULL&lt;br&gt;stack_b = NULL" style="shape=parallelogram;perimeter=parallelogramPerimeter;whiteSpace=wrap;html=1;fixedSize=1;fontSize=16;rounded=1;glass=0;strokeWidth=1;shadow=0;" parent="WIyWlLk6GJQsqaUBKTNV-1" vertex="1">
          <mxGeometry x="140" y="410" width="160" height="80" as="geometry" />
        </mxCell>
        <mxCell id="Y_ejUnifsEcxqDauokeJ-78" style="edgeStyle=none;curved=1;rounded=0;orthogonalLoop=1;jettySize=auto;html=1;exitX=0.5;exitY=1;exitDx=0;exitDy=0;entryX=1;entryY=0.5;entryDx=0;entryDy=0;fontSize=12;endArrow=open;startSize=14;endSize=14;sourcePerimeterSpacing=8;targetPerimeterSpacing=8;" parent="WIyWlLk6GJQsqaUBKTNV-1" source="Y_ejUnifsEcxqDauokeJ-74" target="Y_ejUnifsEcxqDauokeJ-76" edge="1">
          <mxGeometry relative="1" as="geometry">
            <Array as="points">
              <mxPoint x="420" y="1025" />
            </Array>
          </mxGeometry>
        </mxCell>
        <mxCell id="Y_ejUnifsEcxqDauokeJ-74" value="Split_argv" style="whiteSpace=wrap;html=1;fontSize=16;rounded=1;glass=0;strokeWidth=1;shadow=0;" parent="WIyWlLk6GJQsqaUBKTNV-1" vertex="1">
          <mxGeometry x="360" y="795" width="120" height="60" as="geometry" />
        </mxCell>
        <mxCell id="Y_ejUnifsEcxqDauokeJ-80" value="" style="edgeStyle=none;curved=1;rounded=0;orthogonalLoop=1;jettySize=auto;html=1;fontSize=12;endArrow=open;startSize=14;endSize=14;sourcePerimeterSpacing=8;targetPerimeterSpacing=8;" parent="WIyWlLk6GJQsqaUBKTNV-1" source="Y_ejUnifsEcxqDauokeJ-76" target="Y_ejUnifsEcxqDauokeJ-79" edge="1">
          <mxGeometry relative="1" as="geometry" />
        </mxCell>
        <mxCell id="Y_ejUnifsEcxqDauokeJ-76" value="引数が正常か&lt;br&gt;チェックする" style="whiteSpace=wrap;html=1;fontSize=16;rounded=1;glass=0;strokeWidth=1;shadow=0;" parent="WIyWlLk6GJQsqaUBKTNV-1" vertex="1">
          <mxGeometry x="160" y="995" width="120" height="60" as="geometry" />
        </mxCell>
        <mxCell id="Y_ejUnifsEcxqDauokeJ-90" value="No&lt;br&gt;" style="edgeStyle=none;curved=1;rounded=0;orthogonalLoop=1;jettySize=auto;html=1;fontSize=12;endArrow=open;startSize=14;endSize=14;sourcePerimeterSpacing=8;targetPerimeterSpacing=8;" parent="WIyWlLk6GJQsqaUBKTNV-1" source="Y_ejUnifsEcxqDauokeJ-79" target="Y_ejUnifsEcxqDauokeJ-89" edge="1">
          <mxGeometry relative="1" as="geometry" />
        </mxCell>
        <mxCell id="Y_ejUnifsEcxqDauokeJ-133" value="Yes" style="edgeStyle=none;curved=1;rounded=0;orthogonalLoop=1;jettySize=auto;html=1;fontSize=12;endArrow=open;startSize=14;endSize=14;sourcePerimeterSpacing=8;targetPerimeterSpacing=8;" parent="WIyWlLk6GJQsqaUBKTNV-1" source="Y_ejUnifsEcxqDauokeJ-79" edge="1">
          <mxGeometry relative="1" as="geometry">
            <mxPoint x="220" y="1566.5" as="targetPoint" />
          </mxGeometry>
        </mxCell>
        <mxCell id="Y_ejUnifsEcxqDauokeJ-79" value="引数は&lt;br&gt;&#39;0&#39;~&#39;9&#39;&lt;br&gt;の範囲？" style="rhombus;whiteSpace=wrap;html=1;fontSize=16;rounded=1;glass=0;strokeWidth=1;shadow=0;" parent="WIyWlLk6GJQsqaUBKTNV-1" vertex="1">
          <mxGeometry x="157.5" y="1160" width="125" height="111" as="geometry" />
        </mxCell>
        <mxCell id="Y_ejUnifsEcxqDauokeJ-119" value="" style="edgeStyle=none;curved=1;rounded=0;orthogonalLoop=1;jettySize=auto;html=1;fontSize=12;endArrow=open;startSize=14;endSize=14;sourcePerimeterSpacing=8;targetPerimeterSpacing=8;" parent="WIyWlLk6GJQsqaUBKTNV-1" source="Y_ejUnifsEcxqDauokeJ-89" edge="1">
          <mxGeometry relative="1" as="geometry">
            <mxPoint x="465" y="1290" as="targetPoint" />
          </mxGeometry>
        </mxCell>
        <mxCell id="Y_ejUnifsEcxqDauokeJ-89" value="Error, args&lt;br&gt;(stderr)" style="whiteSpace=wrap;html=1;fontSize=16;rounded=1;glass=0;strokeWidth=1;shadow=0;" parent="WIyWlLk6GJQsqaUBKTNV-1" vertex="1">
          <mxGeometry x="405" y="1185.5" width="120" height="60" as="geometry" />
        </mxCell>
        <mxCell id="Y_ejUnifsEcxqDauokeJ-121" value="Yes" style="edgeStyle=none;curved=1;rounded=0;orthogonalLoop=1;jettySize=auto;html=1;fontSize=12;endArrow=open;startSize=14;endSize=14;sourcePerimeterSpacing=8;targetPerimeterSpacing=8;" parent="WIyWlLk6GJQsqaUBKTNV-1" source="Y_ejUnifsEcxqDauokeJ-118" target="Y_ejUnifsEcxqDauokeJ-120" edge="1">
          <mxGeometry relative="1" as="geometry" />
        </mxCell>
        <mxCell id="Y_ejUnifsEcxqDauokeJ-123" value="No" style="edgeStyle=none;curved=1;rounded=0;orthogonalLoop=1;jettySize=auto;html=1;fontSize=12;endArrow=open;startSize=14;endSize=14;sourcePerimeterSpacing=8;targetPerimeterSpacing=8;" parent="WIyWlLk6GJQsqaUBKTNV-1" source="Y_ejUnifsEcxqDauokeJ-118" edge="1">
          <mxGeometry relative="1" as="geometry">
            <mxPoint x="465" y="1424.5" as="targetPoint" />
          </mxGeometry>
        </mxCell>
        <mxCell id="Y_ejUnifsEcxqDauokeJ-118" value="argc == 2" style="rhombus;whiteSpace=wrap;html=1;fontSize=16;rounded=1;glass=0;strokeWidth=1;shadow=0;" parent="WIyWlLk6GJQsqaUBKTNV-1" vertex="1">
          <mxGeometry x="425" y="1300" width="80" height="80" as="geometry" />
        </mxCell>
        <mxCell id="Y_ejUnifsEcxqDauokeJ-129" style="edgeStyle=none;curved=1;rounded=0;orthogonalLoop=1;jettySize=auto;html=1;exitX=0.5;exitY=1;exitDx=0;exitDy=0;entryX=1;entryY=0.5;entryDx=0;entryDy=0;fontSize=12;endArrow=open;startSize=14;endSize=14;sourcePerimeterSpacing=8;targetPerimeterSpacing=8;" parent="WIyWlLk6GJQsqaUBKTNV-1" source="Y_ejUnifsEcxqDauokeJ-120" target="Y_ejUnifsEcxqDauokeJ-122" edge="1">
          <mxGeometry relative="1" as="geometry">
            <Array as="points">
              <mxPoint x="665" y="1465" />
            </Array>
          </mxGeometry>
        </mxCell>
        <mxCell id="Y_ejUnifsEcxqDauokeJ-120" value="free(splited)" style="whiteSpace=wrap;html=1;fontSize=16;rounded=1;glass=0;strokeWidth=1;shadow=0;" parent="WIyWlLk6GJQsqaUBKTNV-1" vertex="1">
          <mxGeometry x="605" y="1310" width="120" height="60" as="geometry" />
        </mxCell>
        <mxCell id="Y_ejUnifsEcxqDauokeJ-122" value="exit(1)" style="whiteSpace=wrap;html=1;fontSize=16;rounded=1;glass=0;strokeWidth=1;shadow=0;" parent="WIyWlLk6GJQsqaUBKTNV-1" vertex="1">
          <mxGeometry x="405" y="1434.5" width="120" height="60" as="geometry" />
        </mxCell>
        <mxCell id="Y_ejUnifsEcxqDauokeJ-130" style="edgeStyle=none;curved=1;rounded=0;orthogonalLoop=1;jettySize=auto;html=1;exitX=0.5;exitY=1;exitDx=0;exitDy=0;entryX=0.5;entryY=0;entryDx=0;entryDy=0;fontSize=12;endArrow=open;startSize=14;endSize=14;sourcePerimeterSpacing=8;targetPerimeterSpacing=8;" parent="WIyWlLk6GJQsqaUBKTNV-1" target="Y_ejUnifsEcxqDauokeJ-131" edge="1">
          <mxGeometry relative="1" as="geometry">
            <mxPoint x="465" y="1494.5" as="sourcePoint" />
          </mxGeometry>
        </mxCell>
        <mxCell id="Y_ejUnifsEcxqDauokeJ-131" value="終了" style="rounded=1;whiteSpace=wrap;html=1;fontSize=12;glass=0;strokeWidth=1;shadow=0;" parent="WIyWlLk6GJQsqaUBKTNV-1" vertex="1">
          <mxGeometry x="405" y="1534.5" width="120" height="40" as="geometry" />
        </mxCell>
        <mxCell id="Y_ejUnifsEcxqDauokeJ-147" value="No&lt;br&gt;" style="edgeStyle=none;curved=1;rounded=0;orthogonalLoop=1;jettySize=auto;html=1;fontSize=12;endArrow=open;startSize=14;endSize=14;sourcePerimeterSpacing=8;targetPerimeterSpacing=8;" parent="WIyWlLk6GJQsqaUBKTNV-1" source="Y_ejUnifsEcxqDauokeJ-149" target="Y_ejUnifsEcxqDauokeJ-151" edge="1">
          <mxGeometry relative="1" as="geometry" />
        </mxCell>
        <mxCell id="Y_ejUnifsEcxqDauokeJ-148" value="Yes" style="edgeStyle=none;curved=1;rounded=0;orthogonalLoop=1;jettySize=auto;html=1;fontSize=12;endArrow=open;startSize=14;endSize=14;sourcePerimeterSpacing=8;targetPerimeterSpacing=8;" parent="WIyWlLk6GJQsqaUBKTNV-1" source="Y_ejUnifsEcxqDauokeJ-149" edge="1">
          <mxGeometry relative="1" as="geometry">
            <mxPoint x="220" y="1981" as="targetPoint" />
          </mxGeometry>
        </mxCell>
        <mxCell id="Y_ejUnifsEcxqDauokeJ-149" value="引数は&lt;br&gt;INTの範囲？" style="rhombus;whiteSpace=wrap;html=1;fontSize=16;rounded=1;glass=0;strokeWidth=1;shadow=0;" parent="WIyWlLk6GJQsqaUBKTNV-1" vertex="1">
          <mxGeometry x="157.5" y="1574.5" width="125" height="111" as="geometry" />
        </mxCell>
        <mxCell id="Y_ejUnifsEcxqDauokeJ-150" value="" style="edgeStyle=none;curved=1;rounded=0;orthogonalLoop=1;jettySize=auto;html=1;fontSize=12;endArrow=open;startSize=14;endSize=14;sourcePerimeterSpacing=8;targetPerimeterSpacing=8;" parent="WIyWlLk6GJQsqaUBKTNV-1" source="Y_ejUnifsEcxqDauokeJ-151" edge="1">
          <mxGeometry relative="1" as="geometry">
            <mxPoint x="465" y="1704.5" as="targetPoint" />
          </mxGeometry>
        </mxCell>
        <mxCell id="Y_ejUnifsEcxqDauokeJ-151" value="Error, args&lt;br&gt;(stderr)" style="whiteSpace=wrap;html=1;fontSize=16;rounded=1;glass=0;strokeWidth=1;shadow=0;" parent="WIyWlLk6GJQsqaUBKTNV-1" vertex="1">
          <mxGeometry x="405" y="1600" width="120" height="60" as="geometry" />
        </mxCell>
        <mxCell id="Y_ejUnifsEcxqDauokeJ-152" value="Yes" style="edgeStyle=none;curved=1;rounded=0;orthogonalLoop=1;jettySize=auto;html=1;fontSize=12;endArrow=open;startSize=14;endSize=14;sourcePerimeterSpacing=8;targetPerimeterSpacing=8;" parent="WIyWlLk6GJQsqaUBKTNV-1" source="Y_ejUnifsEcxqDauokeJ-154" target="Y_ejUnifsEcxqDauokeJ-156" edge="1">
          <mxGeometry relative="1" as="geometry" />
        </mxCell>
        <mxCell id="Y_ejUnifsEcxqDauokeJ-153" value="No" style="edgeStyle=none;curved=1;rounded=0;orthogonalLoop=1;jettySize=auto;html=1;fontSize=12;endArrow=open;startSize=14;endSize=14;sourcePerimeterSpacing=8;targetPerimeterSpacing=8;" parent="WIyWlLk6GJQsqaUBKTNV-1" source="Y_ejUnifsEcxqDauokeJ-154" edge="1">
          <mxGeometry relative="1" as="geometry">
            <mxPoint x="465" y="1839" as="targetPoint" />
          </mxGeometry>
        </mxCell>
        <mxCell id="Y_ejUnifsEcxqDauokeJ-154" value="argc == 2" style="rhombus;whiteSpace=wrap;html=1;fontSize=16;rounded=1;glass=0;strokeWidth=1;shadow=0;" parent="WIyWlLk6GJQsqaUBKTNV-1" vertex="1">
          <mxGeometry x="425" y="1714.5" width="80" height="80" as="geometry" />
        </mxCell>
        <mxCell id="Y_ejUnifsEcxqDauokeJ-155" style="edgeStyle=none;curved=1;rounded=0;orthogonalLoop=1;jettySize=auto;html=1;exitX=0.5;exitY=1;exitDx=0;exitDy=0;entryX=1;entryY=0.5;entryDx=0;entryDy=0;fontSize=12;endArrow=open;startSize=14;endSize=14;sourcePerimeterSpacing=8;targetPerimeterSpacing=8;" parent="WIyWlLk6GJQsqaUBKTNV-1" source="Y_ejUnifsEcxqDauokeJ-156" target="Y_ejUnifsEcxqDauokeJ-157" edge="1">
          <mxGeometry relative="1" as="geometry">
            <Array as="points">
              <mxPoint x="665" y="1879.5" />
            </Array>
          </mxGeometry>
        </mxCell>
        <mxCell id="Y_ejUnifsEcxqDauokeJ-156" value="free(splited)" style="whiteSpace=wrap;html=1;fontSize=16;rounded=1;glass=0;strokeWidth=1;shadow=0;" parent="WIyWlLk6GJQsqaUBKTNV-1" vertex="1">
          <mxGeometry x="605" y="1724.5" width="120" height="60" as="geometry" />
        </mxCell>
        <mxCell id="Y_ejUnifsEcxqDauokeJ-157" value="exit(1)" style="whiteSpace=wrap;html=1;fontSize=16;rounded=1;glass=0;strokeWidth=1;shadow=0;" parent="WIyWlLk6GJQsqaUBKTNV-1" vertex="1">
          <mxGeometry x="405" y="1849" width="120" height="60" as="geometry" />
        </mxCell>
        <mxCell id="Y_ejUnifsEcxqDauokeJ-158" style="edgeStyle=none;curved=1;rounded=0;orthogonalLoop=1;jettySize=auto;html=1;exitX=0.5;exitY=1;exitDx=0;exitDy=0;entryX=0.5;entryY=0;entryDx=0;entryDy=0;fontSize=12;endArrow=open;startSize=14;endSize=14;sourcePerimeterSpacing=8;targetPerimeterSpacing=8;" parent="WIyWlLk6GJQsqaUBKTNV-1" target="Y_ejUnifsEcxqDauokeJ-159" edge="1">
          <mxGeometry relative="1" as="geometry">
            <mxPoint x="465" y="1909" as="sourcePoint" />
          </mxGeometry>
        </mxCell>
        <mxCell id="Y_ejUnifsEcxqDauokeJ-159" value="終了" style="rounded=1;whiteSpace=wrap;html=1;fontSize=12;glass=0;strokeWidth=1;shadow=0;" parent="WIyWlLk6GJQsqaUBKTNV-1" vertex="1">
          <mxGeometry x="405" y="1949" width="120" height="40" as="geometry" />
        </mxCell>
        <mxCell id="Y_ejUnifsEcxqDauokeJ-160" value="No&lt;br&gt;" style="edgeStyle=none;curved=1;rounded=0;orthogonalLoop=1;jettySize=auto;html=1;fontSize=12;endArrow=open;startSize=14;endSize=14;sourcePerimeterSpacing=8;targetPerimeterSpacing=8;" parent="WIyWlLk6GJQsqaUBKTNV-1" source="Y_ejUnifsEcxqDauokeJ-162" target="Y_ejUnifsEcxqDauokeJ-164" edge="1">
          <mxGeometry relative="1" as="geometry" />
        </mxCell>
        <mxCell id="Y_ejUnifsEcxqDauokeJ-161" value="Yes" style="edgeStyle=none;curved=1;rounded=0;orthogonalLoop=1;jettySize=auto;html=1;fontSize=12;endArrow=open;startSize=14;endSize=14;sourcePerimeterSpacing=8;targetPerimeterSpacing=8;" parent="WIyWlLk6GJQsqaUBKTNV-1" source="Y_ejUnifsEcxqDauokeJ-162" edge="1">
          <mxGeometry relative="1" as="geometry">
            <mxPoint x="220" y="2395.5" as="targetPoint" />
          </mxGeometry>
        </mxCell>
        <mxCell id="Y_ejUnifsEcxqDauokeJ-162" value="引数は&lt;br&gt;異なる数字？" style="rhombus;whiteSpace=wrap;html=1;fontSize=16;rounded=1;glass=0;strokeWidth=1;shadow=0;" parent="WIyWlLk6GJQsqaUBKTNV-1" vertex="1">
          <mxGeometry x="157.5" y="1989" width="125" height="111" as="geometry" />
        </mxCell>
        <mxCell id="Y_ejUnifsEcxqDauokeJ-163" value="" style="edgeStyle=none;curved=1;rounded=0;orthogonalLoop=1;jettySize=auto;html=1;fontSize=12;endArrow=open;startSize=14;endSize=14;sourcePerimeterSpacing=8;targetPerimeterSpacing=8;" parent="WIyWlLk6GJQsqaUBKTNV-1" source="Y_ejUnifsEcxqDauokeJ-164" edge="1">
          <mxGeometry relative="1" as="geometry">
            <mxPoint x="465" y="2119" as="targetPoint" />
          </mxGeometry>
        </mxCell>
        <mxCell id="Y_ejUnifsEcxqDauokeJ-164" value="Error, args&lt;br&gt;(stderr)" style="whiteSpace=wrap;html=1;fontSize=16;rounded=1;glass=0;strokeWidth=1;shadow=0;" parent="WIyWlLk6GJQsqaUBKTNV-1" vertex="1">
          <mxGeometry x="405" y="2014.5" width="120" height="60" as="geometry" />
        </mxCell>
        <mxCell id="Y_ejUnifsEcxqDauokeJ-165" value="Yes" style="edgeStyle=none;curved=1;rounded=0;orthogonalLoop=1;jettySize=auto;html=1;fontSize=12;endArrow=open;startSize=14;endSize=14;sourcePerimeterSpacing=8;targetPerimeterSpacing=8;" parent="WIyWlLk6GJQsqaUBKTNV-1" source="Y_ejUnifsEcxqDauokeJ-167" target="Y_ejUnifsEcxqDauokeJ-169" edge="1">
          <mxGeometry relative="1" as="geometry" />
        </mxCell>
        <mxCell id="Y_ejUnifsEcxqDauokeJ-166" value="No" style="edgeStyle=none;curved=1;rounded=0;orthogonalLoop=1;jettySize=auto;html=1;fontSize=12;endArrow=open;startSize=14;endSize=14;sourcePerimeterSpacing=8;targetPerimeterSpacing=8;" parent="WIyWlLk6GJQsqaUBKTNV-1" source="Y_ejUnifsEcxqDauokeJ-167" edge="1">
          <mxGeometry relative="1" as="geometry">
            <mxPoint x="465" y="2253.5" as="targetPoint" />
          </mxGeometry>
        </mxCell>
        <mxCell id="Y_ejUnifsEcxqDauokeJ-167" value="argc == 2" style="rhombus;whiteSpace=wrap;html=1;fontSize=16;rounded=1;glass=0;strokeWidth=1;shadow=0;" parent="WIyWlLk6GJQsqaUBKTNV-1" vertex="1">
          <mxGeometry x="425" y="2129" width="80" height="80" as="geometry" />
        </mxCell>
        <mxCell id="Y_ejUnifsEcxqDauokeJ-168" style="edgeStyle=none;curved=1;rounded=0;orthogonalLoop=1;jettySize=auto;html=1;exitX=0.5;exitY=1;exitDx=0;exitDy=0;entryX=1;entryY=0.5;entryDx=0;entryDy=0;fontSize=12;endArrow=open;startSize=14;endSize=14;sourcePerimeterSpacing=8;targetPerimeterSpacing=8;" parent="WIyWlLk6GJQsqaUBKTNV-1" source="Y_ejUnifsEcxqDauokeJ-169" target="Y_ejUnifsEcxqDauokeJ-170" edge="1">
          <mxGeometry relative="1" as="geometry">
            <Array as="points">
              <mxPoint x="665" y="2294" />
            </Array>
          </mxGeometry>
        </mxCell>
        <mxCell id="Y_ejUnifsEcxqDauokeJ-169" value="free(splited)" style="whiteSpace=wrap;html=1;fontSize=16;rounded=1;glass=0;strokeWidth=1;shadow=0;" parent="WIyWlLk6GJQsqaUBKTNV-1" vertex="1">
          <mxGeometry x="605" y="2139" width="120" height="60" as="geometry" />
        </mxCell>
        <mxCell id="Y_ejUnifsEcxqDauokeJ-170" value="exit(1)" style="whiteSpace=wrap;html=1;fontSize=16;rounded=1;glass=0;strokeWidth=1;shadow=0;" parent="WIyWlLk6GJQsqaUBKTNV-1" vertex="1">
          <mxGeometry x="405" y="2263.5" width="120" height="60" as="geometry" />
        </mxCell>
        <mxCell id="Y_ejUnifsEcxqDauokeJ-171" style="edgeStyle=none;curved=1;rounded=0;orthogonalLoop=1;jettySize=auto;html=1;exitX=0.5;exitY=1;exitDx=0;exitDy=0;entryX=0.5;entryY=0;entryDx=0;entryDy=0;fontSize=12;endArrow=open;startSize=14;endSize=14;sourcePerimeterSpacing=8;targetPerimeterSpacing=8;" parent="WIyWlLk6GJQsqaUBKTNV-1" target="Y_ejUnifsEcxqDauokeJ-172" edge="1">
          <mxGeometry relative="1" as="geometry">
            <mxPoint x="465" y="2323.5" as="sourcePoint" />
          </mxGeometry>
        </mxCell>
        <mxCell id="Y_ejUnifsEcxqDauokeJ-172" value="終了" style="rounded=1;whiteSpace=wrap;html=1;fontSize=12;glass=0;strokeWidth=1;shadow=0;" parent="WIyWlLk6GJQsqaUBKTNV-1" vertex="1">
          <mxGeometry x="405" y="2363.5" width="120" height="40" as="geometry" />
        </mxCell>
        <mxCell id="Y_ejUnifsEcxqDauokeJ-189" value="" style="edgeStyle=none;curved=1;rounded=0;orthogonalLoop=1;jettySize=auto;html=1;fontSize=12;endArrow=open;startSize=14;endSize=14;sourcePerimeterSpacing=8;targetPerimeterSpacing=8;" parent="WIyWlLk6GJQsqaUBKTNV-1" source="Y_ejUnifsEcxqDauokeJ-174" target="Y_ejUnifsEcxqDauokeJ-188" edge="1">
          <mxGeometry relative="1" as="geometry" />
        </mxCell>
        <mxCell id="Y_ejUnifsEcxqDauokeJ-174" value="stackに引数&lt;br&gt;を格納する" style="whiteSpace=wrap;html=1;fontSize=16;rounded=1;glass=0;strokeWidth=1;shadow=0;" parent="WIyWlLk6GJQsqaUBKTNV-1" vertex="1">
          <mxGeometry x="160" y="2403.5" width="120" height="60" as="geometry" />
        </mxCell>
        <mxCell id="Y_ejUnifsEcxqDauokeJ-175" value="" style="edgeStyle=none;curved=1;rounded=0;orthogonalLoop=1;jettySize=auto;html=1;fontSize=12;endArrow=open;startSize=14;endSize=14;sourcePerimeterSpacing=8;targetPerimeterSpacing=8;" parent="WIyWlLk6GJQsqaUBKTNV-1" source="Y_ejUnifsEcxqDauokeJ-176" target="Y_ejUnifsEcxqDauokeJ-178" edge="1">
          <mxGeometry relative="1" as="geometry" />
        </mxCell>
        <mxCell id="Y_ejUnifsEcxqDauokeJ-176" value="座標圧縮" style="whiteSpace=wrap;html=1;fontSize=16;rounded=1;glass=0;strokeWidth=1;shadow=0;" parent="WIyWlLk6GJQsqaUBKTNV-1" vertex="1">
          <mxGeometry x="160" y="2780" width="120" height="60" as="geometry" />
        </mxCell>
        <mxCell id="Y_ejUnifsEcxqDauokeJ-177" value="Yes&lt;br&gt;" style="edgeStyle=none;curved=1;rounded=0;orthogonalLoop=1;jettySize=auto;html=1;fontSize=12;endArrow=open;startSize=14;endSize=14;sourcePerimeterSpacing=8;targetPerimeterSpacing=8;" parent="WIyWlLk6GJQsqaUBKTNV-1" source="Y_ejUnifsEcxqDauokeJ-178" target="Y_ejUnifsEcxqDauokeJ-179" edge="1">
          <mxGeometry relative="1" as="geometry" />
        </mxCell>
        <mxCell id="Y_ejUnifsEcxqDauokeJ-202" value="No" style="edgeStyle=none;curved=1;rounded=0;orthogonalLoop=1;jettySize=auto;html=1;fontSize=12;endArrow=open;startSize=14;endSize=14;sourcePerimeterSpacing=8;targetPerimeterSpacing=8;" parent="WIyWlLk6GJQsqaUBKTNV-1" source="Y_ejUnifsEcxqDauokeJ-178" target="Y_ejUnifsEcxqDauokeJ-201" edge="1">
          <mxGeometry relative="1" as="geometry" />
        </mxCell>
        <mxCell id="Y_ejUnifsEcxqDauokeJ-178" value="ソート済" style="rhombus;whiteSpace=wrap;html=1;fontSize=16;rounded=1;glass=0;strokeWidth=1;shadow=0;" parent="WIyWlLk6GJQsqaUBKTNV-1" vertex="1">
          <mxGeometry x="180" y="2950" width="80" height="80" as="geometry" />
        </mxCell>
        <mxCell id="Y_ejUnifsEcxqDauokeJ-179" value="" style="whiteSpace=wrap;html=1;fontSize=16;rounded=1;glass=0;strokeWidth=1;shadow=0;" parent="WIyWlLk6GJQsqaUBKTNV-1" vertex="1">
          <mxGeometry x="360" y="2960" width="120" height="60" as="geometry" />
        </mxCell>
        <mxCell id="Y_ejUnifsEcxqDauokeJ-191" value="Yes" style="edgeStyle=none;curved=1;rounded=0;orthogonalLoop=1;jettySize=auto;html=1;fontSize=12;endArrow=open;startSize=14;endSize=14;sourcePerimeterSpacing=8;targetPerimeterSpacing=8;" parent="WIyWlLk6GJQsqaUBKTNV-1" source="Y_ejUnifsEcxqDauokeJ-188" target="Y_ejUnifsEcxqDauokeJ-190" edge="1">
          <mxGeometry relative="1" as="geometry" />
        </mxCell>
        <mxCell id="Y_ejUnifsEcxqDauokeJ-194" value="No" style="edgeStyle=none;curved=1;rounded=0;orthogonalLoop=1;jettySize=auto;html=1;fontSize=12;endArrow=open;startSize=14;endSize=14;sourcePerimeterSpacing=8;targetPerimeterSpacing=8;" parent="WIyWlLk6GJQsqaUBKTNV-1" source="Y_ejUnifsEcxqDauokeJ-188" target="Y_ejUnifsEcxqDauokeJ-176" edge="1">
          <mxGeometry relative="1" as="geometry" />
        </mxCell>
        <mxCell id="Y_ejUnifsEcxqDauokeJ-188" value="argc == 2" style="rhombus;whiteSpace=wrap;html=1;fontSize=16;rounded=1;glass=0;strokeWidth=1;shadow=0;" parent="WIyWlLk6GJQsqaUBKTNV-1" vertex="1">
          <mxGeometry x="180" y="2573.5" width="80" height="80" as="geometry" />
        </mxCell>
        <mxCell id="Y_ejUnifsEcxqDauokeJ-195" style="edgeStyle=none;curved=1;rounded=0;orthogonalLoop=1;jettySize=auto;html=1;entryX=1;entryY=0.5;entryDx=0;entryDy=0;fontSize=12;endArrow=open;startSize=14;endSize=14;sourcePerimeterSpacing=8;targetPerimeterSpacing=8;" parent="WIyWlLk6GJQsqaUBKTNV-1" source="Y_ejUnifsEcxqDauokeJ-190" target="Y_ejUnifsEcxqDauokeJ-176" edge="1">
          <mxGeometry relative="1" as="geometry">
            <Array as="points">
              <mxPoint x="420" y="2810" />
            </Array>
          </mxGeometry>
        </mxCell>
        <mxCell id="Y_ejUnifsEcxqDauokeJ-190" value="free(splited)" style="whiteSpace=wrap;html=1;fontSize=16;rounded=1;glass=0;strokeWidth=1;shadow=0;" parent="WIyWlLk6GJQsqaUBKTNV-1" vertex="1">
          <mxGeometry x="360" y="2583.5" width="120" height="60" as="geometry" />
        </mxCell>
        <mxCell id="Y_ejUnifsEcxqDauokeJ-196" value="free(stack_a)&lt;br&gt;exit(0)" style="whiteSpace=wrap;html=1;fontSize=16;rounded=1;glass=0;strokeWidth=1;shadow=0;" parent="WIyWlLk6GJQsqaUBKTNV-1" vertex="1">
          <mxGeometry x="360" y="2960" width="120" height="60" as="geometry" />
        </mxCell>
        <mxCell id="Y_ejUnifsEcxqDauokeJ-197" style="edgeStyle=none;curved=1;rounded=0;orthogonalLoop=1;jettySize=auto;html=1;exitX=0.5;exitY=1;exitDx=0;exitDy=0;entryX=0.5;entryY=0;entryDx=0;entryDy=0;fontSize=12;endArrow=open;startSize=14;endSize=14;sourcePerimeterSpacing=8;targetPerimeterSpacing=8;" parent="WIyWlLk6GJQsqaUBKTNV-1" target="Y_ejUnifsEcxqDauokeJ-198" edge="1">
          <mxGeometry relative="1" as="geometry">
            <mxPoint x="420" y="3020" as="sourcePoint" />
          </mxGeometry>
        </mxCell>
        <mxCell id="Y_ejUnifsEcxqDauokeJ-198" value="終了" style="rounded=1;whiteSpace=wrap;html=1;fontSize=12;glass=0;strokeWidth=1;shadow=0;" parent="WIyWlLk6GJQsqaUBKTNV-1" vertex="1">
          <mxGeometry x="360" y="3060" width="120" height="40" as="geometry" />
        </mxCell>
        <mxCell id="Y_ejUnifsEcxqDauokeJ-209" value="No" style="edgeStyle=none;curved=1;rounded=0;orthogonalLoop=1;jettySize=auto;html=1;fontSize=12;endArrow=open;startSize=14;endSize=14;sourcePerimeterSpacing=8;targetPerimeterSpacing=8;" parent="WIyWlLk6GJQsqaUBKTNV-1" source="Y_ejUnifsEcxqDauokeJ-201" target="Y_ejUnifsEcxqDauokeJ-208" edge="1">
          <mxGeometry relative="1" as="geometry" />
        </mxCell>
        <mxCell id="Y_ejUnifsEcxqDauokeJ-201" value="argc == 2" style="rhombus;whiteSpace=wrap;html=1;fontSize=16;rounded=1;glass=0;strokeWidth=1;shadow=0;" parent="WIyWlLk6GJQsqaUBKTNV-1" vertex="1">
          <mxGeometry x="180" y="3150" width="80" height="80" as="geometry" />
        </mxCell>
        <mxCell id="Y_ejUnifsEcxqDauokeJ-203" value="Yes&lt;br&gt;" style="edgeStyle=none;curved=1;rounded=0;orthogonalLoop=1;jettySize=auto;html=1;fontSize=12;endArrow=open;startSize=14;endSize=14;sourcePerimeterSpacing=8;targetPerimeterSpacing=8;" parent="WIyWlLk6GJQsqaUBKTNV-1" target="Y_ejUnifsEcxqDauokeJ-204" edge="1">
          <mxGeometry relative="1" as="geometry">
            <mxPoint x="268" y="3190" as="sourcePoint" />
          </mxGeometry>
        </mxCell>
        <mxCell id="Y_ejUnifsEcxqDauokeJ-204" value="" style="whiteSpace=wrap;html=1;fontSize=16;rounded=1;glass=0;strokeWidth=1;shadow=0;" parent="WIyWlLk6GJQsqaUBKTNV-1" vertex="1">
          <mxGeometry x="360" y="3160" width="120" height="60" as="geometry" />
        </mxCell>
        <mxCell id="Y_ejUnifsEcxqDauokeJ-205" value="sa&lt;br&gt;free(stack_a)&lt;br&gt;exit(0)" style="whiteSpace=wrap;html=1;fontSize=16;rounded=1;glass=0;strokeWidth=1;shadow=0;" parent="WIyWlLk6GJQsqaUBKTNV-1" vertex="1">
          <mxGeometry x="360" y="3160" width="120" height="60" as="geometry" />
        </mxCell>
        <mxCell id="Y_ejUnifsEcxqDauokeJ-206" style="edgeStyle=none;curved=1;rounded=0;orthogonalLoop=1;jettySize=auto;html=1;exitX=0.5;exitY=1;exitDx=0;exitDy=0;entryX=0.5;entryY=0;entryDx=0;entryDy=0;fontSize=12;endArrow=open;startSize=14;endSize=14;sourcePerimeterSpacing=8;targetPerimeterSpacing=8;" parent="WIyWlLk6GJQsqaUBKTNV-1" target="Y_ejUnifsEcxqDauokeJ-207" edge="1">
          <mxGeometry relative="1" as="geometry">
            <mxPoint x="420" y="3220" as="sourcePoint" />
          </mxGeometry>
        </mxCell>
        <mxCell id="Y_ejUnifsEcxqDauokeJ-207" value="終了" style="rounded=1;whiteSpace=wrap;html=1;fontSize=12;glass=0;strokeWidth=1;shadow=0;" parent="WIyWlLk6GJQsqaUBKTNV-1" vertex="1">
          <mxGeometry x="360" y="3260" width="120" height="40" as="geometry" />
        </mxCell>
        <mxCell id="Y_ejUnifsEcxqDauokeJ-218" value="No" style="edgeStyle=none;curved=1;rounded=0;orthogonalLoop=1;jettySize=auto;html=1;fontSize=12;endArrow=open;startSize=14;endSize=14;sourcePerimeterSpacing=8;targetPerimeterSpacing=8;" parent="WIyWlLk6GJQsqaUBKTNV-1" source="Y_ejUnifsEcxqDauokeJ-208" target="Y_ejUnifsEcxqDauokeJ-217" edge="1">
          <mxGeometry relative="1" as="geometry" />
        </mxCell>
        <mxCell id="Y_ejUnifsEcxqDauokeJ-208" value="argc == 3" style="rhombus;whiteSpace=wrap;html=1;fontSize=16;rounded=1;glass=0;strokeWidth=1;shadow=0;" parent="WIyWlLk6GJQsqaUBKTNV-1" vertex="1">
          <mxGeometry x="180" y="3350" width="80" height="80" as="geometry" />
        </mxCell>
        <mxCell id="Y_ejUnifsEcxqDauokeJ-212" value="Yes&lt;br&gt;" style="edgeStyle=none;curved=1;rounded=0;orthogonalLoop=1;jettySize=auto;html=1;fontSize=12;endArrow=open;startSize=14;endSize=14;sourcePerimeterSpacing=8;targetPerimeterSpacing=8;" parent="WIyWlLk6GJQsqaUBKTNV-1" target="Y_ejUnifsEcxqDauokeJ-213" edge="1">
          <mxGeometry relative="1" as="geometry">
            <mxPoint x="268" y="3390" as="sourcePoint" />
          </mxGeometry>
        </mxCell>
        <mxCell id="Y_ejUnifsEcxqDauokeJ-213" value="" style="whiteSpace=wrap;html=1;fontSize=16;rounded=1;glass=0;strokeWidth=1;shadow=0;" parent="WIyWlLk6GJQsqaUBKTNV-1" vertex="1">
          <mxGeometry x="360" y="3360" width="120" height="60" as="geometry" />
        </mxCell>
        <mxCell id="Y_ejUnifsEcxqDauokeJ-214" value="sort&lt;br&gt;free(stack_a)&lt;br&gt;exit(0)" style="whiteSpace=wrap;html=1;fontSize=16;rounded=1;glass=0;strokeWidth=1;shadow=0;" parent="WIyWlLk6GJQsqaUBKTNV-1" vertex="1">
          <mxGeometry x="360" y="3360" width="120" height="60" as="geometry" />
        </mxCell>
        <mxCell id="Y_ejUnifsEcxqDauokeJ-215" style="edgeStyle=none;curved=1;rounded=0;orthogonalLoop=1;jettySize=auto;html=1;exitX=0.5;exitY=1;exitDx=0;exitDy=0;entryX=0.5;entryY=0;entryDx=0;entryDy=0;fontSize=12;endArrow=open;startSize=14;endSize=14;sourcePerimeterSpacing=8;targetPerimeterSpacing=8;" parent="WIyWlLk6GJQsqaUBKTNV-1" target="Y_ejUnifsEcxqDauokeJ-216" edge="1">
          <mxGeometry relative="1" as="geometry">
            <mxPoint x="420" y="3420" as="sourcePoint" />
          </mxGeometry>
        </mxCell>
        <mxCell id="Y_ejUnifsEcxqDauokeJ-216" value="終了" style="rounded=1;whiteSpace=wrap;html=1;fontSize=12;glass=0;strokeWidth=1;shadow=0;" parent="WIyWlLk6GJQsqaUBKTNV-1" vertex="1">
          <mxGeometry x="360" y="3460" width="120" height="40" as="geometry" />
        </mxCell>
        <mxCell id="Y_ejUnifsEcxqDauokeJ-225" value="No" style="edgeStyle=none;curved=1;rounded=0;orthogonalLoop=1;jettySize=auto;html=1;fontSize=12;endArrow=open;startSize=14;endSize=14;sourcePerimeterSpacing=8;targetPerimeterSpacing=8;" parent="WIyWlLk6GJQsqaUBKTNV-1" source="Y_ejUnifsEcxqDauokeJ-217" target="Y_ejUnifsEcxqDauokeJ-224" edge="1">
          <mxGeometry relative="1" as="geometry" />
        </mxCell>
        <mxCell id="Y_ejUnifsEcxqDauokeJ-217" value="argc &amp;lt;= 5" style="rhombus;whiteSpace=wrap;html=1;fontSize=16;rounded=1;glass=0;strokeWidth=1;shadow=0;" parent="WIyWlLk6GJQsqaUBKTNV-1" vertex="1">
          <mxGeometry x="180" y="3550" width="80" height="80" as="geometry" />
        </mxCell>
        <mxCell id="Y_ejUnifsEcxqDauokeJ-219" value="Yes&lt;br&gt;" style="edgeStyle=none;curved=1;rounded=0;orthogonalLoop=1;jettySize=auto;html=1;fontSize=12;endArrow=open;startSize=14;endSize=14;sourcePerimeterSpacing=8;targetPerimeterSpacing=8;" parent="WIyWlLk6GJQsqaUBKTNV-1" target="Y_ejUnifsEcxqDauokeJ-220" edge="1">
          <mxGeometry relative="1" as="geometry">
            <mxPoint x="268" y="3590" as="sourcePoint" />
          </mxGeometry>
        </mxCell>
        <mxCell id="Y_ejUnifsEcxqDauokeJ-220" value="" style="whiteSpace=wrap;html=1;fontSize=16;rounded=1;glass=0;strokeWidth=1;shadow=0;" parent="WIyWlLk6GJQsqaUBKTNV-1" vertex="1">
          <mxGeometry x="360" y="3560" width="120" height="60" as="geometry" />
        </mxCell>
        <mxCell id="Y_ejUnifsEcxqDauokeJ-221" value="sort&lt;br&gt;free(stack_a)&lt;br&gt;exit(0)" style="whiteSpace=wrap;html=1;fontSize=16;rounded=1;glass=0;strokeWidth=1;shadow=0;" parent="WIyWlLk6GJQsqaUBKTNV-1" vertex="1">
          <mxGeometry x="360" y="3560" width="120" height="60" as="geometry" />
        </mxCell>
        <mxCell id="Y_ejUnifsEcxqDauokeJ-222" style="edgeStyle=none;curved=1;rounded=0;orthogonalLoop=1;jettySize=auto;html=1;exitX=0.5;exitY=1;exitDx=0;exitDy=0;entryX=0.5;entryY=0;entryDx=0;entryDy=0;fontSize=12;endArrow=open;startSize=14;endSize=14;sourcePerimeterSpacing=8;targetPerimeterSpacing=8;" parent="WIyWlLk6GJQsqaUBKTNV-1" target="Y_ejUnifsEcxqDauokeJ-223" edge="1">
          <mxGeometry relative="1" as="geometry">
            <mxPoint x="420" y="3620" as="sourcePoint" />
          </mxGeometry>
        </mxCell>
        <mxCell id="Y_ejUnifsEcxqDauokeJ-223" value="終了" style="rounded=1;whiteSpace=wrap;html=1;fontSize=12;glass=0;strokeWidth=1;shadow=0;" parent="WIyWlLk6GJQsqaUBKTNV-1" vertex="1">
          <mxGeometry x="360" y="3660" width="120" height="40" as="geometry" />
        </mxCell>
        <mxCell id="Y_ejUnifsEcxqDauokeJ-227" value="" style="edgeStyle=none;curved=1;rounded=0;orthogonalLoop=1;jettySize=auto;html=1;fontSize=12;endArrow=open;startSize=14;endSize=14;sourcePerimeterSpacing=8;targetPerimeterSpacing=8;" parent="WIyWlLk6GJQsqaUBKTNV-1" source="Y_ejUnifsEcxqDauokeJ-224" target="Y_ejUnifsEcxqDauokeJ-226" edge="1">
          <mxGeometry relative="1" as="geometry" />
        </mxCell>
        <mxCell id="Y_ejUnifsEcxqDauokeJ-224" value="基数ソート" style="whiteSpace=wrap;html=1;fontSize=16;rounded=1;glass=0;strokeWidth=1;shadow=0;" parent="WIyWlLk6GJQsqaUBKTNV-1" vertex="1">
          <mxGeometry x="156" y="3760" width="120" height="60" as="geometry" />
        </mxCell>
        <mxCell id="Y_ejUnifsEcxqDauokeJ-231" value="" style="edgeStyle=none;curved=1;rounded=0;orthogonalLoop=1;jettySize=auto;html=1;fontSize=12;endArrow=open;startSize=14;endSize=14;sourcePerimeterSpacing=8;targetPerimeterSpacing=8;" parent="WIyWlLk6GJQsqaUBKTNV-1" source="Y_ejUnifsEcxqDauokeJ-226" target="Y_ejUnifsEcxqDauokeJ-228" edge="1">
          <mxGeometry relative="1" as="geometry" />
        </mxCell>
        <mxCell id="Y_ejUnifsEcxqDauokeJ-226" value="free(stack_a)" style="whiteSpace=wrap;html=1;fontSize=16;rounded=1;glass=0;strokeWidth=1;shadow=0;" parent="WIyWlLk6GJQsqaUBKTNV-1" vertex="1">
          <mxGeometry x="156" y="3940" width="120" height="60" as="geometry" />
        </mxCell>
        <mxCell id="Y_ejUnifsEcxqDauokeJ-228" value="終了" style="rounded=1;whiteSpace=wrap;html=1;fontSize=12;glass=0;strokeWidth=1;shadow=0;" parent="WIyWlLk6GJQsqaUBKTNV-1" vertex="1">
          <mxGeometry x="157.5" y="4120" width="120" height="40" as="geometry" />
        </mxCell>
        <mxCell id="ZnV6K95WO72pTij8l2-y-0" value="yshimoda" style="text;html=1;align=center;verticalAlign=middle;resizable=0;points=[];autosize=1;strokeColor=none;fillColor=none;fontSize=16;" vertex="1" parent="WIyWlLk6GJQsqaUBKTNV-1">
          <mxGeometry x="680" y="40" width="90" height="30" as="geometry" />
        </mxCell>
      </root>
    </mxGraphModel>
  </diagram>
</mxfile>
